<mxfile host="app.diagrams.net" modified="2020-08-19T19:07:16.303Z" agent="5.0 (Windows NT 10.0; Win64; x64) AppleWebKit/537.36 (KHTML, like Gecko) Chrome/84.0.4147.125 Safari/537.36" etag="eZSfdNpcM4HuhrDOPlot" version="13.6.3" type="github">
  <diagram name="Page-1" id="97916047-d0de-89f5-080d-49f4d83e522f">
    <mxGraphModel dx="2170" dy="1125" grid="1" gridSize="10" guides="1" tooltips="1" connect="1" arrows="1" fold="1" page="1" pageScale="1.5" pageWidth="1169" pageHeight="827" background="#ffffff" math="0" shadow="0">
      <root>
        <mxCell id="0" />
        <mxCell id="1" parent="0" />
        <mxCell id="5_9NjWd0mVvdZTP8R82o-1" value="&lt;span style=&quot;color: rgba(0 , 0 , 0 , 0) ; font-family: monospace ; font-size: 0px&quot;&gt;%3CmxGraphModel%3E%3Croot%3E%3CmxCell%20id%3D%220%22%2F%3E%3CmxCell%20id%3D%221%22%20parent%3D%220%22%2F%3E%3CmxCell%20id%3D%222%22%20value%3D%22Edad%22%20style%3D%22shape%3DpartialRectangle%3Bhtml%3D1%3BwhiteSpace%3Dwrap%3Bconnectable%3D0%3BfillColor%3Dnone%3Btop%3D0%3Bleft%3D0%3Bbottom%3D0%3Bright%3D0%3Balign%3Dleft%3BspacingLeft%3D6%3Boverflow%3Dhidden%3B%22%20vertex%3D%221%22%20parent%3D%221%22%3E%3CmxGeometry%20x%3D%221139%22%20y%3D%22810%22%20width%3D%22101%22%20height%3D%2220%22%20as%3D%22geometry%22%2F%3E%3C%2FmxCell%3E%3C%2Froot%3E%3C%2FmxGraphModel%3E&lt;/span&gt;" style="rounded=0;whiteSpace=wrap;html=1;" vertex="1" parent="1">
          <mxGeometry x="1070" y="380" width="550" height="820" as="geometry" />
        </mxCell>
        <mxCell id="55yQh_2DnshUginpH88V-67" value="" style="shape=ext;double=1;rounded=0;whiteSpace=wrap;html=1;gradientColor=none;" parent="1" vertex="1">
          <mxGeometry x="80" y="380" width="480" height="820" as="geometry" />
        </mxCell>
        <mxCell id="55yQh_2DnshUginpH88V-87" value="Municipios" style="shape=table;html=1;whiteSpace=wrap;startSize=30;container=1;collapsible=0;childLayout=tableLayout;fixedRows=1;rowLines=0;fontStyle=1;align=center;gradientColor=none;" parent="1" vertex="1">
          <mxGeometry x="380" y="450" width="130" height="200" as="geometry" />
        </mxCell>
        <mxCell id="55yQh_2DnshUginpH88V-88" value="" style="shape=partialRectangle;html=1;whiteSpace=wrap;collapsible=0;dropTarget=0;pointerEvents=0;fillColor=none;top=0;left=0;bottom=1;right=0;points=[[0,0.5],[1,0.5]];portConstraint=eastwest;" parent="55yQh_2DnshUginpH88V-87" vertex="1">
          <mxGeometry y="30" width="130" height="20" as="geometry" />
        </mxCell>
        <mxCell id="55yQh_2DnshUginpH88V-89" value="PK" style="shape=partialRectangle;html=1;whiteSpace=wrap;connectable=0;fillColor=none;top=0;left=0;bottom=0;right=0;overflow=hidden;" parent="55yQh_2DnshUginpH88V-88" vertex="1">
          <mxGeometry width="29" height="20" as="geometry" />
        </mxCell>
        <mxCell id="55yQh_2DnshUginpH88V-90" value="MunicipioID" style="shape=partialRectangle;html=1;whiteSpace=wrap;connectable=0;fillColor=none;top=0;left=0;bottom=0;right=0;align=left;spacingLeft=6;overflow=hidden;" parent="55yQh_2DnshUginpH88V-88" vertex="1">
          <mxGeometry x="29" width="101" height="20" as="geometry" />
        </mxCell>
        <mxCell id="55yQh_2DnshUginpH88V-91" value="" style="shape=partialRectangle;html=1;whiteSpace=wrap;collapsible=0;dropTarget=0;pointerEvents=0;fillColor=none;top=0;left=0;bottom=0;right=0;points=[[0,0.5],[1,0.5]];portConstraint=eastwest;" parent="55yQh_2DnshUginpH88V-87" vertex="1">
          <mxGeometry y="50" width="130" height="20" as="geometry" />
        </mxCell>
        <mxCell id="55yQh_2DnshUginpH88V-92" value="" style="shape=partialRectangle;html=1;whiteSpace=wrap;connectable=0;fillColor=none;top=0;left=0;bottom=0;right=0;overflow=hidden;" parent="55yQh_2DnshUginpH88V-91" vertex="1">
          <mxGeometry width="29" height="20" as="geometry" />
        </mxCell>
        <mxCell id="55yQh_2DnshUginpH88V-93" value="Nombre" style="shape=partialRectangle;html=1;whiteSpace=wrap;connectable=0;fillColor=none;top=0;left=0;bottom=0;right=0;align=left;spacingLeft=6;overflow=hidden;" parent="55yQh_2DnshUginpH88V-91" vertex="1">
          <mxGeometry x="29" width="101" height="20" as="geometry" />
        </mxCell>
        <mxCell id="55yQh_2DnshUginpH88V-94" value="" style="shape=partialRectangle;html=1;whiteSpace=wrap;collapsible=0;dropTarget=0;pointerEvents=0;fillColor=none;top=0;left=0;bottom=0;right=0;points=[[0,0.5],[1,0.5]];portConstraint=eastwest;" parent="55yQh_2DnshUginpH88V-87" vertex="1">
          <mxGeometry y="70" width="130" height="20" as="geometry" />
        </mxCell>
        <mxCell id="55yQh_2DnshUginpH88V-95" value="" style="shape=partialRectangle;html=1;whiteSpace=wrap;connectable=0;fillColor=none;top=0;left=0;bottom=0;right=0;overflow=hidden;" parent="55yQh_2DnshUginpH88V-94" vertex="1">
          <mxGeometry width="29" height="20" as="geometry" />
        </mxCell>
        <mxCell id="55yQh_2DnshUginpH88V-96" value="Estado" style="shape=partialRectangle;html=1;whiteSpace=wrap;connectable=0;fillColor=none;top=0;left=0;bottom=0;right=0;align=left;spacingLeft=6;overflow=hidden;" parent="55yQh_2DnshUginpH88V-94" vertex="1">
          <mxGeometry x="29" width="101" height="20" as="geometry" />
        </mxCell>
        <mxCell id="55yQh_2DnshUginpH88V-68" value="Usuario" style="shape=table;html=1;whiteSpace=wrap;startSize=30;container=1;collapsible=0;childLayout=tableLayout;fixedRows=1;rowLines=0;fontStyle=1;align=center;gradientColor=none;" parent="1" vertex="1">
          <mxGeometry x="120" y="450" width="130" height="200" as="geometry" />
        </mxCell>
        <mxCell id="55yQh_2DnshUginpH88V-69" value="" style="shape=partialRectangle;html=1;whiteSpace=wrap;collapsible=0;dropTarget=0;pointerEvents=0;fillColor=none;top=0;left=0;bottom=1;right=0;points=[[0,0.5],[1,0.5]];portConstraint=eastwest;" parent="55yQh_2DnshUginpH88V-68" vertex="1">
          <mxGeometry y="30" width="130" height="20" as="geometry" />
        </mxCell>
        <mxCell id="55yQh_2DnshUginpH88V-70" value="PK" style="shape=partialRectangle;html=1;whiteSpace=wrap;connectable=0;fillColor=none;top=0;left=0;bottom=0;right=0;overflow=hidden;" parent="55yQh_2DnshUginpH88V-69" vertex="1">
          <mxGeometry width="29" height="20" as="geometry" />
        </mxCell>
        <mxCell id="55yQh_2DnshUginpH88V-71" value="UsuariosID" style="shape=partialRectangle;html=1;whiteSpace=wrap;connectable=0;fillColor=none;top=0;left=0;bottom=0;right=0;align=left;spacingLeft=6;overflow=hidden;" parent="55yQh_2DnshUginpH88V-69" vertex="1">
          <mxGeometry x="29" width="101" height="20" as="geometry" />
        </mxCell>
        <mxCell id="55yQh_2DnshUginpH88V-72" value="" style="shape=partialRectangle;html=1;whiteSpace=wrap;collapsible=0;dropTarget=0;pointerEvents=0;fillColor=none;top=0;left=0;bottom=0;right=0;points=[[0,0.5],[1,0.5]];portConstraint=eastwest;" parent="55yQh_2DnshUginpH88V-68" vertex="1">
          <mxGeometry y="50" width="130" height="20" as="geometry" />
        </mxCell>
        <mxCell id="55yQh_2DnshUginpH88V-73" value="" style="shape=partialRectangle;html=1;whiteSpace=wrap;connectable=0;fillColor=none;top=0;left=0;bottom=0;right=0;overflow=hidden;" parent="55yQh_2DnshUginpH88V-72" vertex="1">
          <mxGeometry width="29" height="20" as="geometry" />
        </mxCell>
        <mxCell id="55yQh_2DnshUginpH88V-74" value="Nombre" style="shape=partialRectangle;html=1;whiteSpace=wrap;connectable=0;fillColor=none;top=0;left=0;bottom=0;right=0;align=left;spacingLeft=6;overflow=hidden;" parent="55yQh_2DnshUginpH88V-72" vertex="1">
          <mxGeometry x="29" width="101" height="20" as="geometry" />
        </mxCell>
        <mxCell id="55yQh_2DnshUginpH88V-75" value="" style="shape=partialRectangle;html=1;whiteSpace=wrap;collapsible=0;dropTarget=0;pointerEvents=0;fillColor=none;top=0;left=0;bottom=0;right=0;points=[[0,0.5],[1,0.5]];portConstraint=eastwest;" parent="55yQh_2DnshUginpH88V-68" vertex="1">
          <mxGeometry y="70" width="130" height="20" as="geometry" />
        </mxCell>
        <mxCell id="55yQh_2DnshUginpH88V-76" value="" style="shape=partialRectangle;html=1;whiteSpace=wrap;connectable=0;fillColor=none;top=0;left=0;bottom=0;right=0;overflow=hidden;" parent="55yQh_2DnshUginpH88V-75" vertex="1">
          <mxGeometry width="29" height="20" as="geometry" />
        </mxCell>
        <mxCell id="55yQh_2DnshUginpH88V-77" value="Apellido" style="shape=partialRectangle;html=1;whiteSpace=wrap;connectable=0;fillColor=none;top=0;left=0;bottom=0;right=0;align=left;spacingLeft=6;overflow=hidden;" parent="55yQh_2DnshUginpH88V-75" vertex="1">
          <mxGeometry x="29" width="101" height="20" as="geometry" />
        </mxCell>
        <mxCell id="55yQh_2DnshUginpH88V-78" value="" style="shape=partialRectangle;html=1;whiteSpace=wrap;collapsible=0;dropTarget=0;pointerEvents=0;fillColor=none;top=0;left=0;bottom=0;right=0;points=[[0,0.5],[1,0.5]];portConstraint=eastwest;" parent="1" vertex="1">
          <mxGeometry x="120" y="540" width="130" height="20" as="geometry" />
        </mxCell>
        <mxCell id="55yQh_2DnshUginpH88V-80" value="Correo" style="shape=partialRectangle;html=1;whiteSpace=wrap;connectable=0;fillColor=none;top=0;left=0;bottom=0;right=0;align=left;spacingLeft=6;overflow=hidden;" parent="55yQh_2DnshUginpH88V-78" vertex="1">
          <mxGeometry x="29" width="101" height="20" as="geometry" />
        </mxCell>
        <mxCell id="55yQh_2DnshUginpH88V-81" value="" style="shape=partialRectangle;html=1;whiteSpace=wrap;collapsible=0;dropTarget=0;pointerEvents=0;fillColor=none;top=0;left=0;bottom=0;right=0;points=[[0,0.5],[1,0.5]];portConstraint=eastwest;" parent="1" vertex="1">
          <mxGeometry x="120" y="560" width="130" height="20" as="geometry" />
        </mxCell>
        <mxCell id="55yQh_2DnshUginpH88V-83" value="Password" style="shape=partialRectangle;html=1;whiteSpace=wrap;connectable=0;fillColor=none;top=0;left=0;bottom=0;right=0;align=left;spacingLeft=6;overflow=hidden;" parent="55yQh_2DnshUginpH88V-81" vertex="1">
          <mxGeometry x="29" width="101" height="20" as="geometry" />
        </mxCell>
        <mxCell id="55yQh_2DnshUginpH88V-84" value="" style="shape=partialRectangle;html=1;whiteSpace=wrap;collapsible=0;dropTarget=0;pointerEvents=0;fillColor=none;top=0;left=0;bottom=0;right=0;points=[[0,0.5],[1,0.5]];portConstraint=eastwest;" parent="1" vertex="1">
          <mxGeometry x="120" y="580" width="130" height="20" as="geometry" />
        </mxCell>
        <mxCell id="55yQh_2DnshUginpH88V-85" value="MunicipioID" style="shape=partialRectangle;html=1;whiteSpace=wrap;connectable=0;fillColor=none;top=0;left=0;bottom=0;right=0;align=left;spacingLeft=6;overflow=hidden;" parent="55yQh_2DnshUginpH88V-84" vertex="1">
          <mxGeometry x="29" width="101" height="20" as="geometry" />
        </mxCell>
        <mxCell id="55yQh_2DnshUginpH88V-86" value="&lt;font size=&quot;1&quot;&gt;SK&lt;/font&gt;" style="text;strokeColor=none;fillColor=none;html=1;fontSize=24;fontStyle=1;verticalAlign=bottom;align=center;" parent="1" vertex="1">
          <mxGeometry x="120" y="580" width="30" height="20" as="geometry" />
        </mxCell>
        <mxCell id="55yQh_2DnshUginpH88V-97" value="Aviso" style="shape=table;html=1;whiteSpace=wrap;startSize=30;container=1;collapsible=0;childLayout=tableLayout;fixedRows=1;rowLines=0;fontStyle=1;align=center;gradientColor=none;" parent="1" vertex="1">
          <mxGeometry x="120" y="690" width="140" height="200" as="geometry" />
        </mxCell>
        <mxCell id="55yQh_2DnshUginpH88V-98" value="" style="shape=partialRectangle;html=1;whiteSpace=wrap;collapsible=0;dropTarget=0;pointerEvents=0;fillColor=none;top=0;left=0;bottom=1;right=0;points=[[0,0.5],[1,0.5]];portConstraint=eastwest;" parent="55yQh_2DnshUginpH88V-97" vertex="1">
          <mxGeometry y="30" width="140" height="20" as="geometry" />
        </mxCell>
        <mxCell id="55yQh_2DnshUginpH88V-99" value="PK" style="shape=partialRectangle;html=1;whiteSpace=wrap;connectable=0;fillColor=none;top=0;left=0;bottom=0;right=0;overflow=hidden;" parent="55yQh_2DnshUginpH88V-98" vertex="1">
          <mxGeometry width="31" height="20" as="geometry" />
        </mxCell>
        <mxCell id="55yQh_2DnshUginpH88V-100" value="AvisosID" style="shape=partialRectangle;html=1;whiteSpace=wrap;connectable=0;fillColor=none;top=0;left=0;bottom=0;right=0;align=left;spacingLeft=6;overflow=hidden;" parent="55yQh_2DnshUginpH88V-98" vertex="1">
          <mxGeometry x="31" width="109" height="20" as="geometry" />
        </mxCell>
        <mxCell id="55yQh_2DnshUginpH88V-101" value="" style="shape=partialRectangle;html=1;whiteSpace=wrap;collapsible=0;dropTarget=0;pointerEvents=0;fillColor=none;top=0;left=0;bottom=0;right=0;points=[[0,0.5],[1,0.5]];portConstraint=eastwest;" parent="55yQh_2DnshUginpH88V-97" vertex="1">
          <mxGeometry y="50" width="140" height="20" as="geometry" />
        </mxCell>
        <mxCell id="55yQh_2DnshUginpH88V-102" value="" style="shape=partialRectangle;html=1;whiteSpace=wrap;connectable=0;fillColor=none;top=0;left=0;bottom=0;right=0;overflow=hidden;" parent="55yQh_2DnshUginpH88V-101" vertex="1">
          <mxGeometry width="31" height="20" as="geometry" />
        </mxCell>
        <mxCell id="55yQh_2DnshUginpH88V-103" value="Mensaje" style="shape=partialRectangle;html=1;whiteSpace=wrap;connectable=0;fillColor=none;top=0;left=0;bottom=0;right=0;align=left;spacingLeft=6;overflow=hidden;" parent="55yQh_2DnshUginpH88V-101" vertex="1">
          <mxGeometry x="31" width="109" height="20" as="geometry" />
        </mxCell>
        <mxCell id="55yQh_2DnshUginpH88V-104" value="" style="shape=partialRectangle;html=1;whiteSpace=wrap;collapsible=0;dropTarget=0;pointerEvents=0;fillColor=none;top=0;left=0;bottom=0;right=0;points=[[0,0.5],[1,0.5]];portConstraint=eastwest;" parent="55yQh_2DnshUginpH88V-97" vertex="1">
          <mxGeometry y="70" width="140" height="20" as="geometry" />
        </mxCell>
        <mxCell id="55yQh_2DnshUginpH88V-105" value="" style="shape=partialRectangle;html=1;whiteSpace=wrap;connectable=0;fillColor=none;top=0;left=0;bottom=0;right=0;overflow=hidden;" parent="55yQh_2DnshUginpH88V-104" vertex="1">
          <mxGeometry width="31" height="20" as="geometry" />
        </mxCell>
        <mxCell id="55yQh_2DnshUginpH88V-106" value="MunicipioID" style="shape=partialRectangle;html=1;whiteSpace=wrap;connectable=0;fillColor=none;top=0;left=0;bottom=0;right=0;align=left;spacingLeft=6;overflow=hidden;" parent="55yQh_2DnshUginpH88V-104" vertex="1">
          <mxGeometry x="31" width="109" height="20" as="geometry" />
        </mxCell>
        <mxCell id="55yQh_2DnshUginpH88V-107" value="" style="shape=partialRectangle;html=1;whiteSpace=wrap;collapsible=0;dropTarget=0;pointerEvents=0;fillColor=none;top=0;left=0;bottom=0;right=0;points=[[0,0.5],[1,0.5]];portConstraint=eastwest;" parent="1" vertex="1">
          <mxGeometry x="120" y="780" width="130" height="20" as="geometry" />
        </mxCell>
        <mxCell id="55yQh_2DnshUginpH88V-108" value="" style="shape=partialRectangle;html=1;whiteSpace=wrap;connectable=0;fillColor=none;top=0;left=0;bottom=0;right=0;overflow=hidden;" parent="55yQh_2DnshUginpH88V-107" vertex="1">
          <mxGeometry width="29" height="20" as="geometry" />
        </mxCell>
        <mxCell id="55yQh_2DnshUginpH88V-109" value="Titulo&lt;span style=&quot;color: rgba(0 , 0 , 0 , 0) ; font-family: monospace ; font-size: 0px&quot;&gt;%3CmxGraphModel%3E%3Croot%3E%3CmxCell%20id%3D%220%22%2F%3E%3CmxCell%20id%3D%221%22%20parent%3D%220%22%2F%3E%3CmxCell%20id%3D%222%22%20value%3D%22%22%20style%3D%22shape%3DpartialRectangle%3Bhtml%3D1%3BwhiteSpace%3Dwrap%3Bcollapsible%3D0%3BdropTarget%3D0%3BpointerEvents%3D0%3BfillColor%3Dnone%3Btop%3D0%3Bleft%3D0%3Bbottom%3D0%3Bright%3D0%3Bpoints%3D%5B%5B0%2C0.5%5D%2C%5B1%2C0.5%5D%5D%3BportConstraint%3Deastwest%3B%22%20vertex%3D%221%22%20parent%3D%221%22%3E%3CmxGeometry%20x%3D%22120%22%20y%3D%22760%22%20width%3D%22130%22%20height%3D%2220%22%20as%3D%22geometry%22%2F%3E%3C%2FmxCell%3E%3CmxCell%20id%3D%223%22%20value%3D%22%22%20style%3D%22shape%3DpartialRectangle%3Bhtml%3D1%3BwhiteSpace%3Dwrap%3Bconnectable%3D0%3BfillColor%3Dnone%3Btop%3D0%3Bleft%3D0%3Bbottom%3D0%3Bright%3D0%3Boverflow%3Dhidden%3B%22%20vertex%3D%221%22%20parent%3D%222%22%3E%3CmxGeometry%20width%3D%2229%22%20height%3D%2220%22%20as%3D%22geometry%22%2F%3E%3C%2FmxCell%3E%3CmxCell%20id%3D%224%22%20value%3D%22MunicipioID%22%20style%3D%22shape%3DpartialRectangle%3Bhtml%3D1%3BwhiteSpace%3Dwrap%3Bconnectable%3D0%3BfillColor%3Dnone%3Btop%3D0%3Bleft%3D0%3Bbottom%3D0%3Bright%3D0%3Balign%3Dleft%3BspacingLeft%3D6%3Boverflow%3Dhidden%3B%22%20vertex%3D%221%22%20parent%3D%222%22%3E%3CmxGeometry%20x%3D%2229%22%20width%3D%22101%22%20height%3D%2220%22%20as%3D%22geometry%22%2F%3E%3C%2FmxCell%3E%3C%2Froot%3E%3C%2FmxGraphModel%3E&lt;/span&gt;" style="shape=partialRectangle;html=1;whiteSpace=wrap;connectable=0;fillColor=none;top=0;left=0;bottom=0;right=0;align=left;spacingLeft=6;overflow=hidden;" parent="55yQh_2DnshUginpH88V-107" vertex="1">
          <mxGeometry x="29" width="101" height="20" as="geometry" />
        </mxCell>
        <mxCell id="55yQh_2DnshUginpH88V-110" value="" style="shape=partialRectangle;html=1;whiteSpace=wrap;collapsible=0;dropTarget=0;pointerEvents=0;fillColor=none;top=0;left=0;bottom=0;right=0;points=[[0,0.5],[1,0.5]];portConstraint=eastwest;" parent="1" vertex="1">
          <mxGeometry x="120" y="800" width="130" height="20" as="geometry" />
        </mxCell>
        <mxCell id="55yQh_2DnshUginpH88V-111" value="" style="shape=partialRectangle;html=1;whiteSpace=wrap;connectable=0;fillColor=none;top=0;left=0;bottom=0;right=0;overflow=hidden;" parent="55yQh_2DnshUginpH88V-110" vertex="1">
          <mxGeometry width="29" height="20" as="geometry" />
        </mxCell>
        <mxCell id="55yQh_2DnshUginpH88V-112" value="Nivel" style="shape=partialRectangle;html=1;whiteSpace=wrap;connectable=0;fillColor=none;top=0;left=0;bottom=0;right=0;align=left;spacingLeft=6;overflow=hidden;" parent="55yQh_2DnshUginpH88V-110" vertex="1">
          <mxGeometry x="29" width="101" height="20" as="geometry" />
        </mxCell>
        <mxCell id="55yQh_2DnshUginpH88V-113" value="" style="shape=partialRectangle;html=1;whiteSpace=wrap;collapsible=0;dropTarget=0;pointerEvents=0;fillColor=none;top=0;left=0;bottom=0;right=0;points=[[0,0.5],[1,0.5]];portConstraint=eastwest;" parent="1" vertex="1">
          <mxGeometry x="120" y="820" width="130" height="20" as="geometry" />
        </mxCell>
        <mxCell id="55yQh_2DnshUginpH88V-114" value="" style="shape=partialRectangle;html=1;whiteSpace=wrap;connectable=0;fillColor=none;top=0;left=0;bottom=0;right=0;overflow=hidden;" parent="55yQh_2DnshUginpH88V-113" vertex="1">
          <mxGeometry width="29" height="20" as="geometry" />
        </mxCell>
        <mxCell id="55yQh_2DnshUginpH88V-115" value="FechaCreacion" style="shape=partialRectangle;html=1;whiteSpace=wrap;connectable=0;fillColor=none;top=0;left=0;bottom=0;right=0;align=left;spacingLeft=6;overflow=hidden;" parent="55yQh_2DnshUginpH88V-113" vertex="1">
          <mxGeometry x="29" width="101" height="20" as="geometry" />
        </mxCell>
        <mxCell id="55yQh_2DnshUginpH88V-116" value="" style="shape=partialRectangle;html=1;whiteSpace=wrap;collapsible=0;dropTarget=0;pointerEvents=0;fillColor=none;top=0;left=0;bottom=0;right=0;points=[[0,0.5],[1,0.5]];portConstraint=eastwest;" parent="1" vertex="1">
          <mxGeometry x="120" y="840" width="140" height="20" as="geometry" />
        </mxCell>
        <mxCell id="55yQh_2DnshUginpH88V-117" value="" style="shape=partialRectangle;html=1;whiteSpace=wrap;connectable=0;fillColor=none;top=0;left=0;bottom=0;right=0;overflow=hidden;" parent="55yQh_2DnshUginpH88V-116" vertex="1">
          <mxGeometry width="31.23076923076923" height="20" as="geometry" />
        </mxCell>
        <mxCell id="55yQh_2DnshUginpH88V-118" value="FechaModificacion" style="shape=partialRectangle;html=1;whiteSpace=wrap;connectable=0;fillColor=none;top=0;left=0;bottom=0;right=0;align=left;spacingLeft=6;overflow=hidden;" parent="55yQh_2DnshUginpH88V-116" vertex="1">
          <mxGeometry x="31.23076923076923" width="108.76923076923076" height="20" as="geometry" />
        </mxCell>
        <mxCell id="55yQh_2DnshUginpH88V-119" value="Clinica" style="shape=table;html=1;whiteSpace=wrap;startSize=30;container=1;collapsible=0;childLayout=tableLayout;fixedRows=1;rowLines=0;fontStyle=1;align=center;gradientColor=none;" parent="1" vertex="1">
          <mxGeometry x="375" y="690" width="175" height="250" as="geometry" />
        </mxCell>
        <mxCell id="55yQh_2DnshUginpH88V-120" value="" style="shape=partialRectangle;html=1;whiteSpace=wrap;collapsible=0;dropTarget=0;pointerEvents=0;fillColor=none;top=0;left=0;bottom=1;right=0;points=[[0,0.5],[1,0.5]];portConstraint=eastwest;" parent="55yQh_2DnshUginpH88V-119" vertex="1">
          <mxGeometry y="30" width="175" height="20" as="geometry" />
        </mxCell>
        <mxCell id="55yQh_2DnshUginpH88V-121" value="PK" style="shape=partialRectangle;html=1;whiteSpace=wrap;connectable=0;fillColor=none;top=0;left=0;bottom=0;right=0;overflow=hidden;" parent="55yQh_2DnshUginpH88V-120" vertex="1">
          <mxGeometry width="25" height="20" as="geometry" />
        </mxCell>
        <mxCell id="55yQh_2DnshUginpH88V-122" value="ClinicasID" style="shape=partialRectangle;html=1;whiteSpace=wrap;connectable=0;fillColor=none;top=0;left=0;bottom=0;right=0;align=left;spacingLeft=6;overflow=hidden;" parent="55yQh_2DnshUginpH88V-120" vertex="1">
          <mxGeometry x="25" width="150" height="20" as="geometry" />
        </mxCell>
        <mxCell id="55yQh_2DnshUginpH88V-123" value="" style="shape=partialRectangle;html=1;whiteSpace=wrap;collapsible=0;dropTarget=0;pointerEvents=0;fillColor=none;top=0;left=0;bottom=0;right=0;points=[[0,0.5],[1,0.5]];portConstraint=eastwest;" parent="55yQh_2DnshUginpH88V-119" vertex="1">
          <mxGeometry y="50" width="175" height="20" as="geometry" />
        </mxCell>
        <mxCell id="55yQh_2DnshUginpH88V-124" value="" style="shape=partialRectangle;html=1;whiteSpace=wrap;connectable=0;fillColor=none;top=0;left=0;bottom=0;right=0;overflow=hidden;" parent="55yQh_2DnshUginpH88V-123" vertex="1">
          <mxGeometry width="25" height="20" as="geometry" />
        </mxCell>
        <mxCell id="55yQh_2DnshUginpH88V-125" value="TipoClinica" style="shape=partialRectangle;html=1;whiteSpace=wrap;connectable=0;fillColor=none;top=0;left=0;bottom=0;right=0;align=left;spacingLeft=6;overflow=hidden;" parent="55yQh_2DnshUginpH88V-123" vertex="1">
          <mxGeometry x="25" width="150" height="20" as="geometry" />
        </mxCell>
        <mxCell id="55yQh_2DnshUginpH88V-126" value="" style="shape=partialRectangle;html=1;whiteSpace=wrap;collapsible=0;dropTarget=0;pointerEvents=0;fillColor=none;top=0;left=0;bottom=0;right=0;points=[[0,0.5],[1,0.5]];portConstraint=eastwest;" parent="55yQh_2DnshUginpH88V-119" vertex="1">
          <mxGeometry y="70" width="175" height="20" as="geometry" />
        </mxCell>
        <mxCell id="55yQh_2DnshUginpH88V-127" value="" style="shape=partialRectangle;html=1;whiteSpace=wrap;connectable=0;fillColor=none;top=0;left=0;bottom=0;right=0;overflow=hidden;" parent="55yQh_2DnshUginpH88V-126" vertex="1">
          <mxGeometry width="25" height="20" as="geometry" />
        </mxCell>
        <mxCell id="55yQh_2DnshUginpH88V-128" value="MunicipioID" style="shape=partialRectangle;html=1;whiteSpace=wrap;connectable=0;fillColor=none;top=0;left=0;bottom=0;right=0;align=left;spacingLeft=6;overflow=hidden;" parent="55yQh_2DnshUginpH88V-126" vertex="1">
          <mxGeometry x="25" width="150" height="20" as="geometry" />
        </mxCell>
        <mxCell id="55yQh_2DnshUginpH88V-129" value="" style="shape=partialRectangle;html=1;whiteSpace=wrap;collapsible=0;dropTarget=0;pointerEvents=0;fillColor=none;top=0;left=0;bottom=0;right=0;points=[[0,0.5],[1,0.5]];portConstraint=eastwest;" parent="1" vertex="1">
          <mxGeometry x="380" y="780" width="100" height="20" as="geometry" />
        </mxCell>
        <mxCell id="55yQh_2DnshUginpH88V-130" value="" style="shape=partialRectangle;html=1;whiteSpace=wrap;connectable=0;fillColor=none;top=0;left=0;bottom=0;right=0;overflow=hidden;" parent="55yQh_2DnshUginpH88V-129" vertex="1">
          <mxGeometry width="22.142857142857146" height="20" as="geometry" />
        </mxCell>
        <mxCell id="55yQh_2DnshUginpH88V-131" value="Latitud" style="shape=partialRectangle;html=1;whiteSpace=wrap;connectable=0;fillColor=none;top=0;left=0;bottom=0;right=0;align=left;spacingLeft=6;overflow=hidden;" parent="55yQh_2DnshUginpH88V-129" vertex="1">
          <mxGeometry x="22.142857142857146" width="77.85714285714286" height="20" as="geometry" />
        </mxCell>
        <mxCell id="55yQh_2DnshUginpH88V-132" value="" style="shape=partialRectangle;html=1;whiteSpace=wrap;collapsible=0;dropTarget=0;pointerEvents=0;fillColor=none;top=0;left=0;bottom=0;right=0;points=[[0,0.5],[1,0.5]];portConstraint=eastwest;" parent="1" vertex="1">
          <mxGeometry x="380" y="800" width="100" height="20" as="geometry" />
        </mxCell>
        <mxCell id="55yQh_2DnshUginpH88V-133" value="" style="shape=partialRectangle;html=1;whiteSpace=wrap;connectable=0;fillColor=none;top=0;left=0;bottom=0;right=0;overflow=hidden;" parent="55yQh_2DnshUginpH88V-132" vertex="1">
          <mxGeometry width="22.142857142857142" height="20" as="geometry" />
        </mxCell>
        <mxCell id="55yQh_2DnshUginpH88V-134" value="Longitud" style="shape=partialRectangle;html=1;whiteSpace=wrap;connectable=0;fillColor=none;top=0;left=0;bottom=0;right=0;align=left;spacingLeft=6;overflow=hidden;" parent="55yQh_2DnshUginpH88V-132" vertex="1">
          <mxGeometry x="22.142857142857142" width="77.85714285714285" height="20" as="geometry" />
        </mxCell>
        <mxCell id="55yQh_2DnshUginpH88V-135" value="" style="shape=partialRectangle;html=1;whiteSpace=wrap;collapsible=0;dropTarget=0;pointerEvents=0;fillColor=none;top=0;left=0;bottom=0;right=0;points=[[0,0.5],[1,0.5]];portConstraint=eastwest;" parent="1" vertex="1">
          <mxGeometry x="380" y="820" width="100" height="20" as="geometry" />
        </mxCell>
        <mxCell id="55yQh_2DnshUginpH88V-136" value="" style="shape=partialRectangle;html=1;whiteSpace=wrap;connectable=0;fillColor=none;top=0;left=0;bottom=0;right=0;overflow=hidden;" parent="55yQh_2DnshUginpH88V-135" vertex="1">
          <mxGeometry width="22.14285714285714" height="20" as="geometry" />
        </mxCell>
        <mxCell id="55yQh_2DnshUginpH88V-137" value="Horario" style="shape=partialRectangle;html=1;whiteSpace=wrap;connectable=0;fillColor=none;top=0;left=0;bottom=0;right=0;align=left;spacingLeft=6;overflow=hidden;" parent="55yQh_2DnshUginpH88V-135" vertex="1">
          <mxGeometry x="22.14285714285714" width="77.85714285714286" height="20" as="geometry" />
        </mxCell>
        <mxCell id="55yQh_2DnshUginpH88V-138" value="" style="shape=partialRectangle;html=1;whiteSpace=wrap;collapsible=0;dropTarget=0;pointerEvents=0;fillColor=none;top=0;left=0;bottom=0;right=0;points=[[0,0.5],[1,0.5]];portConstraint=eastwest;" parent="1" vertex="1">
          <mxGeometry x="380" y="840" width="100" height="20" as="geometry" />
        </mxCell>
        <mxCell id="55yQh_2DnshUginpH88V-139" value="" style="shape=partialRectangle;html=1;whiteSpace=wrap;connectable=0;fillColor=none;top=0;left=0;bottom=0;right=0;overflow=hidden;" parent="55yQh_2DnshUginpH88V-138" vertex="1">
          <mxGeometry width="22.142857142857142" height="20" as="geometry" />
        </mxCell>
        <mxCell id="55yQh_2DnshUginpH88V-140" value="Telefono" style="shape=partialRectangle;html=1;whiteSpace=wrap;connectable=0;fillColor=none;top=0;left=0;bottom=0;right=0;align=left;spacingLeft=6;overflow=hidden;" parent="55yQh_2DnshUginpH88V-138" vertex="1">
          <mxGeometry x="22.142857142857142" width="77.85714285714286" height="20" as="geometry" />
        </mxCell>
        <mxCell id="55yQh_2DnshUginpH88V-141" value="" style="shape=partialRectangle;html=1;whiteSpace=wrap;collapsible=0;dropTarget=0;pointerEvents=0;fillColor=none;top=0;left=0;bottom=0;right=0;points=[[0,0.5],[1,0.5]];portConstraint=eastwest;" parent="1" vertex="1">
          <mxGeometry x="380" y="860" width="100" height="20" as="geometry" />
        </mxCell>
        <mxCell id="55yQh_2DnshUginpH88V-142" value="" style="shape=partialRectangle;html=1;whiteSpace=wrap;connectable=0;fillColor=none;top=0;left=0;bottom=0;right=0;overflow=hidden;" parent="55yQh_2DnshUginpH88V-141" vertex="1">
          <mxGeometry width="22.142857142857142" height="20" as="geometry" />
        </mxCell>
        <mxCell id="55yQh_2DnshUginpH88V-143" value="Correo" style="shape=partialRectangle;html=1;whiteSpace=wrap;connectable=0;fillColor=none;top=0;left=0;bottom=0;right=0;align=left;spacingLeft=6;overflow=hidden;" parent="55yQh_2DnshUginpH88V-141" vertex="1">
          <mxGeometry x="22.142857142857142" width="77.85714285714285" height="20" as="geometry" />
        </mxCell>
        <mxCell id="55yQh_2DnshUginpH88V-144" value="" style="shape=partialRectangle;html=1;whiteSpace=wrap;collapsible=0;dropTarget=0;pointerEvents=0;fillColor=none;top=0;left=0;bottom=0;right=0;points=[[0,0.5],[1,0.5]];portConstraint=eastwest;" parent="1" vertex="1">
          <mxGeometry x="360" y="880" width="190" height="20" as="geometry" />
        </mxCell>
        <mxCell id="55yQh_2DnshUginpH88V-145" value="" style="shape=partialRectangle;html=1;whiteSpace=wrap;connectable=0;fillColor=none;top=0;left=0;bottom=0;right=0;overflow=hidden;" parent="55yQh_2DnshUginpH88V-144" vertex="1">
          <mxGeometry width="42.07142857142858" height="20" as="geometry" />
        </mxCell>
        <mxCell id="55yQh_2DnshUginpH88V-146" value="NombreDelResponsable" style="shape=partialRectangle;html=1;whiteSpace=wrap;connectable=0;fillColor=none;top=0;left=0;bottom=0;right=0;align=left;spacingLeft=6;overflow=hidden;" parent="55yQh_2DnshUginpH88V-144" vertex="1">
          <mxGeometry x="42.07142857142858" width="147.9285714285714" height="20" as="geometry" />
        </mxCell>
        <UserObject label="SK" placeholders="1" name="Variable" id="55yQh_2DnshUginpH88V-151">
          <mxCell style="text;html=1;strokeColor=none;fillColor=none;align=center;verticalAlign=middle;whiteSpace=wrap;overflow=hidden;" parent="1" vertex="1">
            <mxGeometry x="375" y="760" width="30" height="20" as="geometry" />
          </mxCell>
        </UserObject>
        <UserObject label="SK" placeholders="1" name="Variable" id="55yQh_2DnshUginpH88V-152">
          <mxCell style="text;html=1;strokeColor=none;fillColor=none;align=center;verticalAlign=middle;whiteSpace=wrap;overflow=hidden;" parent="1" vertex="1">
            <mxGeometry x="120" y="760" width="30" height="20" as="geometry" />
          </mxCell>
        </UserObject>
        <mxCell id="5_9NjWd0mVvdZTP8R82o-53" value="Vacuna" style="shape=table;html=1;whiteSpace=wrap;startSize=30;container=1;collapsible=0;childLayout=tableLayout;fixedRows=1;rowLines=0;fontStyle=1;align=center;" vertex="1" parent="1">
          <mxGeometry x="1400" y="445" width="180" height="175" as="geometry" />
        </mxCell>
        <mxCell id="5_9NjWd0mVvdZTP8R82o-54" value="" style="shape=partialRectangle;html=1;whiteSpace=wrap;collapsible=0;dropTarget=0;pointerEvents=0;fillColor=none;top=0;left=0;bottom=1;right=0;points=[[0,0.5],[1,0.5]];portConstraint=eastwest;" vertex="1" parent="5_9NjWd0mVvdZTP8R82o-53">
          <mxGeometry y="30" width="180" height="30" as="geometry" />
        </mxCell>
        <mxCell id="5_9NjWd0mVvdZTP8R82o-55" value="PK" style="shape=partialRectangle;html=1;whiteSpace=wrap;connectable=0;fillColor=none;top=0;left=0;bottom=0;right=0;overflow=hidden;" vertex="1" parent="5_9NjWd0mVvdZTP8R82o-54">
          <mxGeometry width="40" height="30" as="geometry" />
        </mxCell>
        <mxCell id="5_9NjWd0mVvdZTP8R82o-56" value="VacunasID" style="shape=partialRectangle;html=1;whiteSpace=wrap;connectable=0;fillColor=none;top=0;left=0;bottom=0;right=0;align=left;spacingLeft=6;overflow=hidden;" vertex="1" parent="5_9NjWd0mVvdZTP8R82o-54">
          <mxGeometry x="40" width="140" height="30" as="geometry" />
        </mxCell>
        <mxCell id="5_9NjWd0mVvdZTP8R82o-57" value="" style="shape=partialRectangle;html=1;whiteSpace=wrap;collapsible=0;dropTarget=0;pointerEvents=0;fillColor=none;top=0;left=0;bottom=0;right=0;points=[[0,0.5],[1,0.5]];portConstraint=eastwest;" vertex="1" parent="5_9NjWd0mVvdZTP8R82o-53">
          <mxGeometry y="60" width="180" height="20" as="geometry" />
        </mxCell>
        <mxCell id="5_9NjWd0mVvdZTP8R82o-58" value="" style="shape=partialRectangle;html=1;whiteSpace=wrap;connectable=0;fillColor=none;top=0;left=0;bottom=0;right=0;overflow=hidden;" vertex="1" parent="5_9NjWd0mVvdZTP8R82o-57">
          <mxGeometry width="40" height="20" as="geometry" />
        </mxCell>
        <mxCell id="5_9NjWd0mVvdZTP8R82o-59" value="Nombre" style="shape=partialRectangle;html=1;whiteSpace=wrap;connectable=0;fillColor=none;top=0;left=0;bottom=0;right=0;align=left;spacingLeft=6;overflow=hidden;" vertex="1" parent="5_9NjWd0mVvdZTP8R82o-57">
          <mxGeometry x="40" width="140" height="20" as="geometry" />
        </mxCell>
        <mxCell id="5_9NjWd0mVvdZTP8R82o-60" value="" style="shape=partialRectangle;html=1;whiteSpace=wrap;collapsible=0;dropTarget=0;pointerEvents=0;fillColor=none;top=0;left=0;bottom=0;right=0;points=[[0,0.5],[1,0.5]];portConstraint=eastwest;" vertex="1" parent="5_9NjWd0mVvdZTP8R82o-53">
          <mxGeometry y="80" width="180" height="20" as="geometry" />
        </mxCell>
        <mxCell id="5_9NjWd0mVvdZTP8R82o-61" value="" style="shape=partialRectangle;html=1;whiteSpace=wrap;connectable=0;fillColor=none;top=0;left=0;bottom=0;right=0;overflow=hidden;" vertex="1" parent="5_9NjWd0mVvdZTP8R82o-60">
          <mxGeometry width="40" height="20" as="geometry" />
        </mxCell>
        <mxCell id="5_9NjWd0mVvdZTP8R82o-62" value="EnfermedadPreviene" style="shape=partialRectangle;html=1;whiteSpace=wrap;connectable=0;fillColor=none;top=0;left=0;bottom=0;right=0;align=left;spacingLeft=6;overflow=hidden;" vertex="1" parent="5_9NjWd0mVvdZTP8R82o-60">
          <mxGeometry x="40" width="140" height="20" as="geometry" />
        </mxCell>
        <mxCell id="55yQh_2DnshUginpH88V-154" value="Cita" style="shape=table;html=1;whiteSpace=wrap;startSize=30;container=1;collapsible=0;childLayout=tableLayout;fixedRows=1;rowLines=0;fontStyle=1;align=center;gradientColor=none;" parent="1" vertex="1">
          <mxGeometry x="120" y="940" width="130" height="200" as="geometry" />
        </mxCell>
        <mxCell id="55yQh_2DnshUginpH88V-155" value="" style="shape=partialRectangle;html=1;whiteSpace=wrap;collapsible=0;dropTarget=0;pointerEvents=0;fillColor=none;top=0;left=0;bottom=1;right=0;points=[[0,0.5],[1,0.5]];portConstraint=eastwest;" parent="55yQh_2DnshUginpH88V-154" vertex="1">
          <mxGeometry y="30" width="130" height="20" as="geometry" />
        </mxCell>
        <mxCell id="55yQh_2DnshUginpH88V-156" value="PK" style="shape=partialRectangle;html=1;whiteSpace=wrap;connectable=0;fillColor=none;top=0;left=0;bottom=0;right=0;overflow=hidden;" parent="55yQh_2DnshUginpH88V-155" vertex="1">
          <mxGeometry width="29" height="20" as="geometry" />
        </mxCell>
        <mxCell id="55yQh_2DnshUginpH88V-157" value="CitasID" style="shape=partialRectangle;html=1;whiteSpace=wrap;connectable=0;fillColor=none;top=0;left=0;bottom=0;right=0;align=left;spacingLeft=6;overflow=hidden;" parent="55yQh_2DnshUginpH88V-155" vertex="1">
          <mxGeometry x="29" width="101" height="20" as="geometry" />
        </mxCell>
        <mxCell id="55yQh_2DnshUginpH88V-158" value="" style="shape=partialRectangle;html=1;whiteSpace=wrap;collapsible=0;dropTarget=0;pointerEvents=0;fillColor=none;top=0;left=0;bottom=0;right=0;points=[[0,0.5],[1,0.5]];portConstraint=eastwest;" parent="55yQh_2DnshUginpH88V-154" vertex="1">
          <mxGeometry y="50" width="130" height="20" as="geometry" />
        </mxCell>
        <mxCell id="55yQh_2DnshUginpH88V-159" value="" style="shape=partialRectangle;html=1;whiteSpace=wrap;connectable=0;fillColor=none;top=0;left=0;bottom=0;right=0;overflow=hidden;" parent="55yQh_2DnshUginpH88V-158" vertex="1">
          <mxGeometry width="29" height="20" as="geometry" />
        </mxCell>
        <mxCell id="55yQh_2DnshUginpH88V-160" value="Horario" style="shape=partialRectangle;html=1;whiteSpace=wrap;connectable=0;fillColor=none;top=0;left=0;bottom=0;right=0;align=left;spacingLeft=6;overflow=hidden;" parent="55yQh_2DnshUginpH88V-158" vertex="1">
          <mxGeometry x="29" width="101" height="20" as="geometry" />
        </mxCell>
        <mxCell id="55yQh_2DnshUginpH88V-161" value="" style="shape=partialRectangle;html=1;whiteSpace=wrap;collapsible=0;dropTarget=0;pointerEvents=0;fillColor=none;top=0;left=0;bottom=0;right=0;points=[[0,0.5],[1,0.5]];portConstraint=eastwest;" parent="55yQh_2DnshUginpH88V-154" vertex="1">
          <mxGeometry y="70" width="130" height="20" as="geometry" />
        </mxCell>
        <mxCell id="55yQh_2DnshUginpH88V-162" value="" style="shape=partialRectangle;html=1;whiteSpace=wrap;connectable=0;fillColor=none;top=0;left=0;bottom=0;right=0;overflow=hidden;" parent="55yQh_2DnshUginpH88V-161" vertex="1">
          <mxGeometry width="29" height="20" as="geometry" />
        </mxCell>
        <mxCell id="55yQh_2DnshUginpH88V-163" value="Fecha" style="shape=partialRectangle;html=1;whiteSpace=wrap;connectable=0;fillColor=none;top=0;left=0;bottom=0;right=0;align=left;spacingLeft=6;overflow=hidden;" parent="55yQh_2DnshUginpH88V-161" vertex="1">
          <mxGeometry x="29" width="101" height="20" as="geometry" />
        </mxCell>
        <mxCell id="55yQh_2DnshUginpH88V-164" value="BDWeb" style="text;strokeColor=none;fillColor=none;html=1;fontSize=24;fontStyle=1;verticalAlign=middle;align=center;" parent="1" vertex="1">
          <mxGeometry x="270" y="390" width="100" height="40" as="geometry" />
        </mxCell>
        <mxCell id="55yQh_2DnshUginpH88V-168" value="UsuariosID" style="shape=partialRectangle;html=1;whiteSpace=wrap;connectable=0;fillColor=none;top=0;left=0;bottom=0;right=0;align=left;spacingLeft=6;overflow=hidden;" parent="1" vertex="1">
          <mxGeometry x="149" y="1030" width="101" height="20" as="geometry" />
        </mxCell>
        <UserObject label="SK" placeholders="1" name="Variable" id="55yQh_2DnshUginpH88V-170">
          <mxCell style="text;html=1;strokeColor=none;fillColor=none;align=center;verticalAlign=middle;whiteSpace=wrap;overflow=hidden;" parent="1" vertex="1">
            <mxGeometry x="125" y="1030" width="20" height="20" as="geometry" />
          </mxCell>
        </UserObject>
        <mxCell id="55yQh_2DnshUginpH88V-171" value="" style="edgeStyle=elbowEdgeStyle;elbow=vertical;endArrow=classic;html=1;exitX=0;exitY=-0.221;exitDx=0;exitDy=0;entryX=0;entryY=0.5;entryDx=0;entryDy=0;exitPerimeter=0;" parent="1" source="55yQh_2DnshUginpH88V-72" target="55yQh_2DnshUginpH88V-154" edge="1">
          <mxGeometry width="50" height="50" relative="1" as="geometry">
            <mxPoint x="200" y="660" as="sourcePoint" />
            <mxPoint x="250" y="610" as="targetPoint" />
            <Array as="points">
              <mxPoint x="100" y="740" />
            </Array>
          </mxGeometry>
        </mxCell>
        <mxCell id="5_9NjWd0mVvdZTP8R82o-2" value="Persona" style="shape=table;html=1;whiteSpace=wrap;startSize=30;container=1;collapsible=0;childLayout=tableLayout;fixedRows=1;rowLines=0;fontStyle=1;align=center;" vertex="1" parent="1">
          <mxGeometry x="1110" y="450" width="130" height="250" as="geometry" />
        </mxCell>
        <mxCell id="5_9NjWd0mVvdZTP8R82o-3" value="" style="shape=partialRectangle;html=1;whiteSpace=wrap;collapsible=0;dropTarget=0;pointerEvents=0;fillColor=none;top=0;left=0;bottom=1;right=0;points=[[0,0.5],[1,0.5]];portConstraint=eastwest;" vertex="1" parent="5_9NjWd0mVvdZTP8R82o-2">
          <mxGeometry y="30" width="130" height="30" as="geometry" />
        </mxCell>
        <mxCell id="5_9NjWd0mVvdZTP8R82o-4" value="PK" style="shape=partialRectangle;html=1;whiteSpace=wrap;connectable=0;fillColor=none;top=0;left=0;bottom=0;right=0;overflow=hidden;" vertex="1" parent="5_9NjWd0mVvdZTP8R82o-3">
          <mxGeometry width="29" height="30" as="geometry" />
        </mxCell>
        <mxCell id="5_9NjWd0mVvdZTP8R82o-5" value="PersonasID" style="shape=partialRectangle;html=1;whiteSpace=wrap;connectable=0;fillColor=none;top=0;left=0;bottom=0;right=0;align=left;spacingLeft=6;overflow=hidden;" vertex="1" parent="5_9NjWd0mVvdZTP8R82o-3">
          <mxGeometry x="29" width="101" height="30" as="geometry" />
        </mxCell>
        <mxCell id="5_9NjWd0mVvdZTP8R82o-6" value="" style="shape=partialRectangle;html=1;whiteSpace=wrap;collapsible=0;dropTarget=0;pointerEvents=0;fillColor=none;top=0;left=0;bottom=0;right=0;points=[[0,0.5],[1,0.5]];portConstraint=eastwest;" vertex="1" parent="5_9NjWd0mVvdZTP8R82o-2">
          <mxGeometry y="60" width="130" height="20" as="geometry" />
        </mxCell>
        <mxCell id="5_9NjWd0mVvdZTP8R82o-7" value="" style="shape=partialRectangle;html=1;whiteSpace=wrap;connectable=0;fillColor=none;top=0;left=0;bottom=0;right=0;overflow=hidden;" vertex="1" parent="5_9NjWd0mVvdZTP8R82o-6">
          <mxGeometry width="29" height="20" as="geometry" />
        </mxCell>
        <mxCell id="5_9NjWd0mVvdZTP8R82o-8" value="Nombre" style="shape=partialRectangle;html=1;whiteSpace=wrap;connectable=0;fillColor=none;top=0;left=0;bottom=0;right=0;align=left;spacingLeft=6;overflow=hidden;" vertex="1" parent="5_9NjWd0mVvdZTP8R82o-6">
          <mxGeometry x="29" width="101" height="20" as="geometry" />
        </mxCell>
        <mxCell id="5_9NjWd0mVvdZTP8R82o-9" value="" style="shape=partialRectangle;html=1;whiteSpace=wrap;collapsible=0;dropTarget=0;pointerEvents=0;fillColor=none;top=0;left=0;bottom=0;right=0;points=[[0,0.5],[1,0.5]];portConstraint=eastwest;" vertex="1" parent="5_9NjWd0mVvdZTP8R82o-2">
          <mxGeometry y="80" width="130" height="20" as="geometry" />
        </mxCell>
        <mxCell id="5_9NjWd0mVvdZTP8R82o-10" value="" style="shape=partialRectangle;html=1;whiteSpace=wrap;connectable=0;fillColor=none;top=0;left=0;bottom=0;right=0;overflow=hidden;" vertex="1" parent="5_9NjWd0mVvdZTP8R82o-9">
          <mxGeometry width="29" height="20" as="geometry" />
        </mxCell>
        <mxCell id="5_9NjWd0mVvdZTP8R82o-11" value="Apellido" style="shape=partialRectangle;html=1;whiteSpace=wrap;connectable=0;fillColor=none;top=0;left=0;bottom=0;right=0;align=left;spacingLeft=6;overflow=hidden;" vertex="1" parent="5_9NjWd0mVvdZTP8R82o-9">
          <mxGeometry x="29" width="101" height="20" as="geometry" />
        </mxCell>
        <mxCell id="5_9NjWd0mVvdZTP8R82o-12" value="BDLocal" style="text;strokeColor=none;fillColor=none;html=1;fontSize=24;fontStyle=1;verticalAlign=middle;align=center;" vertex="1" parent="1">
          <mxGeometry x="1280" y="390" width="100" height="40" as="geometry" />
        </mxCell>
        <mxCell id="5_9NjWd0mVvdZTP8R82o-13" value="" style="shape=partialRectangle;html=1;whiteSpace=wrap;collapsible=0;dropTarget=0;pointerEvents=0;fillColor=none;top=0;left=0;bottom=0;right=0;points=[[0,0.5],[1,0.5]];portConstraint=eastwest;" vertex="1" parent="1">
          <mxGeometry x="1110" y="550" width="130" height="20" as="geometry" />
        </mxCell>
        <mxCell id="5_9NjWd0mVvdZTP8R82o-14" value="" style="shape=partialRectangle;html=1;whiteSpace=wrap;connectable=0;fillColor=none;top=0;left=0;bottom=0;right=0;overflow=hidden;" vertex="1" parent="5_9NjWd0mVvdZTP8R82o-13">
          <mxGeometry width="29" height="20" as="geometry" />
        </mxCell>
        <mxCell id="5_9NjWd0mVvdZTP8R82o-15" value="Edad" style="shape=partialRectangle;html=1;whiteSpace=wrap;connectable=0;fillColor=none;top=0;left=0;bottom=0;right=0;align=left;spacingLeft=6;overflow=hidden;" vertex="1" parent="5_9NjWd0mVvdZTP8R82o-13">
          <mxGeometry x="29" width="101" height="20" as="geometry" />
        </mxCell>
        <mxCell id="5_9NjWd0mVvdZTP8R82o-20" value="" style="shape=partialRectangle;html=1;whiteSpace=wrap;collapsible=0;dropTarget=0;pointerEvents=0;fillColor=none;top=0;left=0;bottom=0;right=0;points=[[0,0.5],[1,0.5]];portConstraint=eastwest;" vertex="1" parent="1">
          <mxGeometry x="1110" y="570" width="130" height="20" as="geometry" />
        </mxCell>
        <mxCell id="5_9NjWd0mVvdZTP8R82o-21" value="" style="shape=partialRectangle;html=1;whiteSpace=wrap;connectable=0;fillColor=none;top=0;left=0;bottom=0;right=0;overflow=hidden;" vertex="1" parent="5_9NjWd0mVvdZTP8R82o-20">
          <mxGeometry width="29" height="20" as="geometry" />
        </mxCell>
        <mxCell id="5_9NjWd0mVvdZTP8R82o-22" value="Sexo" style="shape=partialRectangle;html=1;whiteSpace=wrap;connectable=0;fillColor=none;top=0;left=0;bottom=0;right=0;align=left;spacingLeft=6;overflow=hidden;" vertex="1" parent="5_9NjWd0mVvdZTP8R82o-20">
          <mxGeometry x="29" width="101" height="20" as="geometry" />
        </mxCell>
        <mxCell id="5_9NjWd0mVvdZTP8R82o-23" value="" style="shape=partialRectangle;html=1;whiteSpace=wrap;collapsible=0;dropTarget=0;pointerEvents=0;fillColor=none;top=0;left=0;bottom=0;right=0;points=[[0,0.5],[1,0.5]];portConstraint=eastwest;" vertex="1" parent="1">
          <mxGeometry x="1110" y="590" width="130" height="20" as="geometry" />
        </mxCell>
        <mxCell id="5_9NjWd0mVvdZTP8R82o-24" value="SK" style="shape=partialRectangle;html=1;whiteSpace=wrap;connectable=0;fillColor=none;top=0;left=0;bottom=0;right=0;overflow=hidden;" vertex="1" parent="5_9NjWd0mVvdZTP8R82o-23">
          <mxGeometry width="29" height="20" as="geometry" />
        </mxCell>
        <mxCell id="5_9NjWd0mVvdZTP8R82o-25" value="MunicipioID" style="shape=partialRectangle;html=1;whiteSpace=wrap;connectable=0;fillColor=none;top=0;left=0;bottom=0;right=0;align=left;spacingLeft=6;overflow=hidden;" vertex="1" parent="5_9NjWd0mVvdZTP8R82o-23">
          <mxGeometry x="29" width="101" height="20" as="geometry" />
        </mxCell>
        <mxCell id="5_9NjWd0mVvdZTP8R82o-26" value="" style="shape=partialRectangle;html=1;whiteSpace=wrap;collapsible=0;dropTarget=0;pointerEvents=0;fillColor=none;top=0;left=0;bottom=0;right=0;points=[[0,0.5],[1,0.5]];portConstraint=eastwest;" vertex="1" parent="1">
          <mxGeometry x="1110" y="610" width="130" height="20" as="geometry" />
        </mxCell>
        <mxCell id="5_9NjWd0mVvdZTP8R82o-27" value="" style="shape=partialRectangle;html=1;whiteSpace=wrap;connectable=0;fillColor=none;top=0;left=0;bottom=0;right=0;overflow=hidden;" vertex="1" parent="5_9NjWd0mVvdZTP8R82o-26">
          <mxGeometry width="29" height="20" as="geometry" />
        </mxCell>
        <mxCell id="5_9NjWd0mVvdZTP8R82o-28" value="FechaAplicacion" style="shape=partialRectangle;html=1;whiteSpace=wrap;connectable=0;fillColor=none;top=0;left=0;bottom=0;right=0;align=left;spacingLeft=6;overflow=hidden;" vertex="1" parent="5_9NjWd0mVvdZTP8R82o-26">
          <mxGeometry x="29" width="101" height="20" as="geometry" />
        </mxCell>
        <mxCell id="5_9NjWd0mVvdZTP8R82o-29" value="Mascota" style="shape=table;html=1;whiteSpace=wrap;startSize=30;container=1;collapsible=0;childLayout=tableLayout;fixedRows=1;rowLines=0;fontStyle=1;align=center;" vertex="1" parent="1">
          <mxGeometry x="1110" y="730" width="130" height="250" as="geometry" />
        </mxCell>
        <mxCell id="5_9NjWd0mVvdZTP8R82o-30" value="" style="shape=partialRectangle;html=1;whiteSpace=wrap;collapsible=0;dropTarget=0;pointerEvents=0;fillColor=none;top=0;left=0;bottom=1;right=0;points=[[0,0.5],[1,0.5]];portConstraint=eastwest;" vertex="1" parent="5_9NjWd0mVvdZTP8R82o-29">
          <mxGeometry y="30" width="130" height="30" as="geometry" />
        </mxCell>
        <mxCell id="5_9NjWd0mVvdZTP8R82o-31" value="PK" style="shape=partialRectangle;html=1;whiteSpace=wrap;connectable=0;fillColor=none;top=0;left=0;bottom=0;right=0;overflow=hidden;" vertex="1" parent="5_9NjWd0mVvdZTP8R82o-30">
          <mxGeometry width="29" height="30" as="geometry" />
        </mxCell>
        <mxCell id="5_9NjWd0mVvdZTP8R82o-32" value="MascotasID" style="shape=partialRectangle;html=1;whiteSpace=wrap;connectable=0;fillColor=none;top=0;left=0;bottom=0;right=0;align=left;spacingLeft=6;overflow=hidden;" vertex="1" parent="5_9NjWd0mVvdZTP8R82o-30">
          <mxGeometry x="29" width="101" height="30" as="geometry" />
        </mxCell>
        <mxCell id="5_9NjWd0mVvdZTP8R82o-33" value="" style="shape=partialRectangle;html=1;whiteSpace=wrap;collapsible=0;dropTarget=0;pointerEvents=0;fillColor=none;top=0;left=0;bottom=0;right=0;points=[[0,0.5],[1,0.5]];portConstraint=eastwest;" vertex="1" parent="5_9NjWd0mVvdZTP8R82o-29">
          <mxGeometry y="60" width="130" height="20" as="geometry" />
        </mxCell>
        <mxCell id="5_9NjWd0mVvdZTP8R82o-34" value="" style="shape=partialRectangle;html=1;whiteSpace=wrap;connectable=0;fillColor=none;top=0;left=0;bottom=0;right=0;overflow=hidden;" vertex="1" parent="5_9NjWd0mVvdZTP8R82o-33">
          <mxGeometry width="29" height="20" as="geometry" />
        </mxCell>
        <mxCell id="5_9NjWd0mVvdZTP8R82o-35" value="Nombre" style="shape=partialRectangle;html=1;whiteSpace=wrap;connectable=0;fillColor=none;top=0;left=0;bottom=0;right=0;align=left;spacingLeft=6;overflow=hidden;" vertex="1" parent="5_9NjWd0mVvdZTP8R82o-33">
          <mxGeometry x="29" width="101" height="20" as="geometry" />
        </mxCell>
        <mxCell id="5_9NjWd0mVvdZTP8R82o-36" value="" style="shape=partialRectangle;html=1;whiteSpace=wrap;collapsible=0;dropTarget=0;pointerEvents=0;fillColor=none;top=0;left=0;bottom=0;right=0;points=[[0,0.5],[1,0.5]];portConstraint=eastwest;" vertex="1" parent="5_9NjWd0mVvdZTP8R82o-29">
          <mxGeometry y="80" width="130" height="20" as="geometry" />
        </mxCell>
        <mxCell id="5_9NjWd0mVvdZTP8R82o-37" value="" style="shape=partialRectangle;html=1;whiteSpace=wrap;connectable=0;fillColor=none;top=0;left=0;bottom=0;right=0;overflow=hidden;" vertex="1" parent="5_9NjWd0mVvdZTP8R82o-36">
          <mxGeometry width="29" height="20" as="geometry" />
        </mxCell>
        <mxCell id="5_9NjWd0mVvdZTP8R82o-38" value="Edad" style="shape=partialRectangle;html=1;whiteSpace=wrap;connectable=0;fillColor=none;top=0;left=0;bottom=0;right=0;align=left;spacingLeft=6;overflow=hidden;" vertex="1" parent="5_9NjWd0mVvdZTP8R82o-36">
          <mxGeometry x="29" width="101" height="20" as="geometry" />
        </mxCell>
        <mxCell id="5_9NjWd0mVvdZTP8R82o-49" value="Especie" style="shape=partialRectangle;html=1;whiteSpace=wrap;connectable=0;fillColor=none;top=0;left=0;bottom=0;right=0;align=left;spacingLeft=6;overflow=hidden;" vertex="1" parent="1">
          <mxGeometry x="1139" y="830" width="101" height="20" as="geometry" />
        </mxCell>
        <mxCell id="5_9NjWd0mVvdZTP8R82o-50" value="MunicipioID" style="shape=partialRectangle;html=1;whiteSpace=wrap;connectable=0;fillColor=none;top=0;left=0;bottom=0;right=0;align=left;spacingLeft=6;overflow=hidden;" vertex="1" parent="1">
          <mxGeometry x="1139" y="850" width="101" height="20" as="geometry" />
        </mxCell>
        <mxCell id="5_9NjWd0mVvdZTP8R82o-51" value="FechaAplicacion" style="shape=partialRectangle;html=1;whiteSpace=wrap;connectable=0;fillColor=none;top=0;left=0;bottom=0;right=0;align=left;spacingLeft=6;overflow=hidden;" vertex="1" parent="1">
          <mxGeometry x="1139" y="870" width="101" height="20" as="geometry" />
        </mxCell>
        <mxCell id="5_9NjWd0mVvdZTP8R82o-52" value="SK" style="shape=partialRectangle;html=1;whiteSpace=wrap;connectable=0;fillColor=none;top=0;left=0;bottom=0;right=0;align=left;spacingLeft=6;overflow=hidden;" vertex="1" parent="1">
          <mxGeometry x="1110" y="850" width="30" height="20" as="geometry" />
        </mxCell>
        <mxCell id="5_9NjWd0mVvdZTP8R82o-63" value="" style="shape=partialRectangle;html=1;whiteSpace=wrap;collapsible=0;dropTarget=0;pointerEvents=0;fillColor=none;top=0;left=0;bottom=0;right=0;points=[[0,0.5],[1,0.5]];portConstraint=eastwest;" vertex="1" parent="1">
          <mxGeometry x="1400" y="550" width="180" height="20" as="geometry" />
        </mxCell>
        <mxCell id="5_9NjWd0mVvdZTP8R82o-64" value="" style="shape=partialRectangle;html=1;whiteSpace=wrap;connectable=0;fillColor=none;top=0;left=0;bottom=0;right=0;overflow=hidden;" vertex="1" parent="5_9NjWd0mVvdZTP8R82o-63">
          <mxGeometry width="40" height="20" as="geometry" />
        </mxCell>
        <mxCell id="5_9NjWd0mVvdZTP8R82o-65" value="FechaDeAplicacion" style="shape=partialRectangle;html=1;whiteSpace=wrap;connectable=0;fillColor=none;top=0;left=0;bottom=0;right=0;align=left;spacingLeft=6;overflow=hidden;" vertex="1" parent="5_9NjWd0mVvdZTP8R82o-63">
          <mxGeometry x="40" width="140" height="20" as="geometry" />
        </mxCell>
        <mxCell id="5_9NjWd0mVvdZTP8R82o-66" value="VacunaPersona" style="shape=table;html=1;whiteSpace=wrap;startSize=30;container=1;collapsible=0;childLayout=tableLayout;fixedRows=1;rowLines=0;fontStyle=1;align=center;" vertex="1" parent="1">
          <mxGeometry x="1400" y="655" width="180" height="175" as="geometry" />
        </mxCell>
        <mxCell id="5_9NjWd0mVvdZTP8R82o-67" value="" style="shape=partialRectangle;html=1;whiteSpace=wrap;collapsible=0;dropTarget=0;pointerEvents=0;fillColor=none;top=0;left=0;bottom=1;right=0;points=[[0,0.5],[1,0.5]];portConstraint=eastwest;" vertex="1" parent="5_9NjWd0mVvdZTP8R82o-66">
          <mxGeometry y="30" width="180" height="30" as="geometry" />
        </mxCell>
        <mxCell id="5_9NjWd0mVvdZTP8R82o-68" value="SK" style="shape=partialRectangle;html=1;whiteSpace=wrap;connectable=0;fillColor=none;top=0;left=0;bottom=0;right=0;overflow=hidden;" vertex="1" parent="5_9NjWd0mVvdZTP8R82o-67">
          <mxGeometry width="40" height="30" as="geometry" />
        </mxCell>
        <mxCell id="5_9NjWd0mVvdZTP8R82o-69" value="VacunasID" style="shape=partialRectangle;html=1;whiteSpace=wrap;connectable=0;fillColor=none;top=0;left=0;bottom=0;right=0;align=left;spacingLeft=6;overflow=hidden;" vertex="1" parent="5_9NjWd0mVvdZTP8R82o-67">
          <mxGeometry x="40" width="140" height="30" as="geometry" />
        </mxCell>
        <mxCell id="5_9NjWd0mVvdZTP8R82o-70" value="" style="shape=partialRectangle;html=1;whiteSpace=wrap;collapsible=0;dropTarget=0;pointerEvents=0;fillColor=none;top=0;left=0;bottom=0;right=0;points=[[0,0.5],[1,0.5]];portConstraint=eastwest;" vertex="1" parent="5_9NjWd0mVvdZTP8R82o-66">
          <mxGeometry y="60" width="180" height="20" as="geometry" />
        </mxCell>
        <mxCell id="5_9NjWd0mVvdZTP8R82o-71" value="SK" style="shape=partialRectangle;html=1;whiteSpace=wrap;connectable=0;fillColor=none;top=0;left=0;bottom=0;right=0;overflow=hidden;" vertex="1" parent="5_9NjWd0mVvdZTP8R82o-70">
          <mxGeometry width="40" height="20" as="geometry" />
        </mxCell>
        <mxCell id="5_9NjWd0mVvdZTP8R82o-72" value="PersonasID" style="shape=partialRectangle;html=1;whiteSpace=wrap;connectable=0;fillColor=none;top=0;left=0;bottom=0;right=0;align=left;spacingLeft=6;overflow=hidden;" vertex="1" parent="5_9NjWd0mVvdZTP8R82o-70">
          <mxGeometry x="40" width="140" height="20" as="geometry" />
        </mxCell>
        <mxCell id="5_9NjWd0mVvdZTP8R82o-73" value="" style="shape=partialRectangle;html=1;whiteSpace=wrap;collapsible=0;dropTarget=0;pointerEvents=0;fillColor=none;top=0;left=0;bottom=0;right=0;points=[[0,0.5],[1,0.5]];portConstraint=eastwest;" vertex="1" parent="5_9NjWd0mVvdZTP8R82o-66">
          <mxGeometry y="80" width="180" height="20" as="geometry" />
        </mxCell>
        <mxCell id="5_9NjWd0mVvdZTP8R82o-74" value="" style="shape=partialRectangle;html=1;whiteSpace=wrap;connectable=0;fillColor=none;top=0;left=0;bottom=0;right=0;overflow=hidden;" vertex="1" parent="5_9NjWd0mVvdZTP8R82o-73">
          <mxGeometry width="40" height="20" as="geometry" />
        </mxCell>
        <mxCell id="5_9NjWd0mVvdZTP8R82o-75" value="FechaRefuerzo" style="shape=partialRectangle;html=1;whiteSpace=wrap;connectable=0;fillColor=none;top=0;left=0;bottom=0;right=0;align=left;spacingLeft=6;overflow=hidden;" vertex="1" parent="5_9NjWd0mVvdZTP8R82o-73">
          <mxGeometry x="40" width="140" height="20" as="geometry" />
        </mxCell>
        <mxCell id="5_9NjWd0mVvdZTP8R82o-76" value="" style="shape=partialRectangle;html=1;whiteSpace=wrap;collapsible=0;dropTarget=0;pointerEvents=0;fillColor=none;top=0;left=0;bottom=0;right=0;points=[[0,0.5],[1,0.5]];portConstraint=eastwest;" vertex="1" parent="1">
          <mxGeometry x="1400" y="760" width="180" height="20" as="geometry" />
        </mxCell>
        <mxCell id="5_9NjWd0mVvdZTP8R82o-77" value="" style="shape=partialRectangle;html=1;whiteSpace=wrap;connectable=0;fillColor=none;top=0;left=0;bottom=0;right=0;overflow=hidden;" vertex="1" parent="5_9NjWd0mVvdZTP8R82o-76">
          <mxGeometry width="40" height="20" as="geometry" />
        </mxCell>
        <mxCell id="5_9NjWd0mVvdZTP8R82o-78" value="AplicadaEnPersona" style="shape=partialRectangle;html=1;whiteSpace=wrap;connectable=0;fillColor=none;top=0;left=0;bottom=0;right=0;align=left;spacingLeft=6;overflow=hidden;" vertex="1" parent="5_9NjWd0mVvdZTP8R82o-76">
          <mxGeometry x="40" width="140" height="20" as="geometry" />
        </mxCell>
        <mxCell id="5_9NjWd0mVvdZTP8R82o-79" value="VacunaMascota" style="shape=table;html=1;whiteSpace=wrap;startSize=30;container=1;collapsible=0;childLayout=tableLayout;fixedRows=1;rowLines=0;fontStyle=1;align=center;" vertex="1" parent="1">
          <mxGeometry x="1400" y="880" width="180" height="175" as="geometry" />
        </mxCell>
        <mxCell id="5_9NjWd0mVvdZTP8R82o-80" value="" style="shape=partialRectangle;html=1;whiteSpace=wrap;collapsible=0;dropTarget=0;pointerEvents=0;fillColor=none;top=0;left=0;bottom=1;right=0;points=[[0,0.5],[1,0.5]];portConstraint=eastwest;" vertex="1" parent="5_9NjWd0mVvdZTP8R82o-79">
          <mxGeometry y="30" width="180" height="30" as="geometry" />
        </mxCell>
        <mxCell id="5_9NjWd0mVvdZTP8R82o-81" value="SK" style="shape=partialRectangle;html=1;whiteSpace=wrap;connectable=0;fillColor=none;top=0;left=0;bottom=0;right=0;overflow=hidden;" vertex="1" parent="5_9NjWd0mVvdZTP8R82o-80">
          <mxGeometry width="40" height="30" as="geometry" />
        </mxCell>
        <mxCell id="5_9NjWd0mVvdZTP8R82o-82" value="VacunasID" style="shape=partialRectangle;html=1;whiteSpace=wrap;connectable=0;fillColor=none;top=0;left=0;bottom=0;right=0;align=left;spacingLeft=6;overflow=hidden;" vertex="1" parent="5_9NjWd0mVvdZTP8R82o-80">
          <mxGeometry x="40" width="140" height="30" as="geometry" />
        </mxCell>
        <mxCell id="5_9NjWd0mVvdZTP8R82o-83" value="" style="shape=partialRectangle;html=1;whiteSpace=wrap;collapsible=0;dropTarget=0;pointerEvents=0;fillColor=none;top=0;left=0;bottom=0;right=0;points=[[0,0.5],[1,0.5]];portConstraint=eastwest;" vertex="1" parent="5_9NjWd0mVvdZTP8R82o-79">
          <mxGeometry y="60" width="180" height="20" as="geometry" />
        </mxCell>
        <mxCell id="5_9NjWd0mVvdZTP8R82o-84" value="SK" style="shape=partialRectangle;html=1;whiteSpace=wrap;connectable=0;fillColor=none;top=0;left=0;bottom=0;right=0;overflow=hidden;" vertex="1" parent="5_9NjWd0mVvdZTP8R82o-83">
          <mxGeometry width="40" height="20" as="geometry" />
        </mxCell>
        <mxCell id="5_9NjWd0mVvdZTP8R82o-85" value="MascotasID" style="shape=partialRectangle;html=1;whiteSpace=wrap;connectable=0;fillColor=none;top=0;left=0;bottom=0;right=0;align=left;spacingLeft=6;overflow=hidden;" vertex="1" parent="5_9NjWd0mVvdZTP8R82o-83">
          <mxGeometry x="40" width="140" height="20" as="geometry" />
        </mxCell>
        <mxCell id="5_9NjWd0mVvdZTP8R82o-86" value="" style="shape=partialRectangle;html=1;whiteSpace=wrap;collapsible=0;dropTarget=0;pointerEvents=0;fillColor=none;top=0;left=0;bottom=0;right=0;points=[[0,0.5],[1,0.5]];portConstraint=eastwest;" vertex="1" parent="5_9NjWd0mVvdZTP8R82o-79">
          <mxGeometry y="80" width="180" height="20" as="geometry" />
        </mxCell>
        <mxCell id="5_9NjWd0mVvdZTP8R82o-87" value="" style="shape=partialRectangle;html=1;whiteSpace=wrap;connectable=0;fillColor=none;top=0;left=0;bottom=0;right=0;overflow=hidden;" vertex="1" parent="5_9NjWd0mVvdZTP8R82o-86">
          <mxGeometry width="40" height="20" as="geometry" />
        </mxCell>
        <mxCell id="5_9NjWd0mVvdZTP8R82o-88" value="FechaRefuerzo" style="shape=partialRectangle;html=1;whiteSpace=wrap;connectable=0;fillColor=none;top=0;left=0;bottom=0;right=0;align=left;spacingLeft=6;overflow=hidden;" vertex="1" parent="5_9NjWd0mVvdZTP8R82o-86">
          <mxGeometry x="40" width="140" height="20" as="geometry" />
        </mxCell>
        <mxCell id="5_9NjWd0mVvdZTP8R82o-99" value="" style="shape=partialRectangle;html=1;whiteSpace=wrap;collapsible=0;dropTarget=0;pointerEvents=0;fillColor=none;top=0;left=0;bottom=0;right=0;points=[[0,0.5],[1,0.5]];portConstraint=eastwest;" vertex="1" parent="1">
          <mxGeometry x="1400" y="980" width="180" height="20" as="geometry" />
        </mxCell>
        <mxCell id="5_9NjWd0mVvdZTP8R82o-100" value="" style="shape=partialRectangle;html=1;whiteSpace=wrap;connectable=0;fillColor=none;top=0;left=0;bottom=0;right=0;overflow=hidden;" vertex="1" parent="5_9NjWd0mVvdZTP8R82o-99">
          <mxGeometry width="40" height="20" as="geometry" />
        </mxCell>
        <mxCell id="5_9NjWd0mVvdZTP8R82o-101" value="AplicadaEnMascotas" style="shape=partialRectangle;html=1;whiteSpace=wrap;connectable=0;fillColor=none;top=0;left=0;bottom=0;right=0;align=left;spacingLeft=6;overflow=hidden;" vertex="1" parent="5_9NjWd0mVvdZTP8R82o-99">
          <mxGeometry x="40" width="140" height="20" as="geometry" />
        </mxCell>
        <mxCell id="5_9NjWd0mVvdZTP8R82o-103" value="" style="edgeStyle=segmentEdgeStyle;endArrow=classic;html=1;entryX=0;entryY=0.5;entryDx=0;entryDy=0;exitX=0;exitY=0.5;exitDx=0;exitDy=0;" edge="1" parent="1" source="5_9NjWd0mVvdZTP8R82o-80" target="5_9NjWd0mVvdZTP8R82o-54">
          <mxGeometry width="50" height="50" relative="1" as="geometry">
            <mxPoint x="1260" y="730" as="sourcePoint" />
            <mxPoint x="1310" y="680" as="targetPoint" />
            <Array as="points">
              <mxPoint x="1330" y="925" />
              <mxPoint x="1330" y="490" />
            </Array>
          </mxGeometry>
        </mxCell>
        <mxCell id="5_9NjWd0mVvdZTP8R82o-104" value="" style="line;strokeWidth=1;html=1;perimeter=backbonePerimeter;points=[];outlineConnect=0;" vertex="1" parent="1">
          <mxGeometry x="1330" y="700" width="70" height="10" as="geometry" />
        </mxCell>
        <mxCell id="5_9NjWd0mVvdZTP8R82o-106" value="" style="endArrow=classic;startArrow=classic;html=1;entryX=0;entryY=0.5;entryDx=0;entryDy=0;exitX=1;exitY=0.5;exitDx=0;exitDy=0;" edge="1" parent="1" source="5_9NjWd0mVvdZTP8R82o-30" target="5_9NjWd0mVvdZTP8R82o-83">
          <mxGeometry width="50" height="50" relative="1" as="geometry">
            <mxPoint x="1260" y="1030" as="sourcePoint" />
            <mxPoint x="1310" y="980" as="targetPoint" />
            <Array as="points">
              <mxPoint x="1280" y="950" />
            </Array>
          </mxGeometry>
        </mxCell>
        <mxCell id="5_9NjWd0mVvdZTP8R82o-107" value="" style="endArrow=classic;startArrow=classic;html=1;entryX=1;entryY=0.5;entryDx=0;entryDy=0;exitX=0;exitY=0.5;exitDx=0;exitDy=0;" edge="1" parent="1" source="5_9NjWd0mVvdZTP8R82o-70" target="5_9NjWd0mVvdZTP8R82o-3">
          <mxGeometry width="50" height="50" relative="1" as="geometry">
            <mxPoint x="1260" y="630" as="sourcePoint" />
            <mxPoint x="1310" y="580" as="targetPoint" />
            <Array as="points">
              <mxPoint x="1280" y="720" />
            </Array>
          </mxGeometry>
        </mxCell>
        <mxCell id="5_9NjWd0mVvdZTP8R82o-108" value="" style="shape=curlyBracket;whiteSpace=wrap;html=1;rounded=1;strokeWidth=3;" vertex="1" parent="1">
          <mxGeometry x="820" y="600" width="290" height="260" as="geometry" />
        </mxCell>
        <mxCell id="5_9NjWd0mVvdZTP8R82o-109" value="" style="endArrow=classic;html=1;entryX=1;entryY=0.5;entryDx=0;entryDy=0;strokeWidth=3;exitX=0.021;exitY=0.5;exitDx=0;exitDy=0;exitPerimeter=0;" edge="1" parent="1" source="5_9NjWd0mVvdZTP8R82o-108" target="55yQh_2DnshUginpH88V-88">
          <mxGeometry width="50" height="50" relative="1" as="geometry">
            <mxPoint x="880" y="730" as="sourcePoint" />
            <mxPoint x="760" y="580" as="targetPoint" />
          </mxGeometry>
        </mxCell>
        <mxCell id="5_9NjWd0mVvdZTP8R82o-110" value="BASE DE DATOS COMPLETA" style="text;strokeColor=none;fillColor=none;html=1;fontSize=24;fontStyle=1;verticalAlign=middle;align=center;" vertex="1" parent="1">
          <mxGeometry x="665" y="290" width="423" height="40" as="geometry" />
        </mxCell>
        <mxCell id="5_9NjWd0mVvdZTP8R82o-115" value="" style="line;strokeWidth=4;direction=south;html=1;perimeter=backbonePerimeter;points=[];outlineConnect=0;" vertex="1" parent="1">
          <mxGeometry x="315" y="550" width="10" height="220" as="geometry" />
        </mxCell>
        <mxCell id="5_9NjWd0mVvdZTP8R82o-116" value="" style="line;strokeWidth=4;html=1;perimeter=backbonePerimeter;points=[];outlineConnect=0;" vertex="1" parent="1">
          <mxGeometry x="260" y="765" width="115" height="10" as="geometry" />
        </mxCell>
        <mxCell id="5_9NjWd0mVvdZTP8R82o-118" value="" style="line;strokeWidth=4;html=1;perimeter=backbonePerimeter;points=[];outlineConnect=0;" vertex="1" parent="1">
          <mxGeometry x="250" y="585" width="70" height="10" as="geometry" />
        </mxCell>
        <mxCell id="5_9NjWd0mVvdZTP8R82o-119" value="" style="edgeStyle=segmentEdgeStyle;endArrow=classic;html=1;strokeWidth=4;entryX=0;entryY=0.5;entryDx=0;entryDy=0;" edge="1" parent="1" target="55yQh_2DnshUginpH88V-88">
          <mxGeometry width="50" height="50" relative="1" as="geometry">
            <mxPoint x="320" y="550" as="sourcePoint" />
            <mxPoint x="370" y="500" as="targetPoint" />
            <Array as="points">
              <mxPoint x="320" y="490" />
            </Array>
          </mxGeometry>
        </mxCell>
      </root>
    </mxGraphModel>
  </diagram>
</mxfile>
